<svg xmlns="http://www.w3.org/2000/svg" viewBox="0 0 1000 1040" width="1000" height="1040" fill="none" stroke="currentColor" stroke-linecap="round" stroke-linejoin="round" preserveAspectRatio="none"><g><path d="M14,16 Q30,16 39,16 Q47,16 55,15 Q63,15 72,15 Q80,15 88,15 Q96,15 105,15 Q113,15 121,15 Q129,15 138,15 Q146,15 154,15 Q162,14 171,14 Q179,14 187,14 Q195,14 203,14 Q212,13 220,13 Q228,13 236,13 Q245,12 253,12 Q261,12 269,12 Q278,11 286,11 Q294,11 302,11 Q311,11 319,11 Q327,10 335,10 Q343,10 352,10 Q360,11 368,11 Q376,11 385,11 Q393,11 401,12 Q409,12 418,12 Q426,13 434,13 Q442,14 451,14 Q459,14 467,15 Q475,15 484,16 Q492,16 500,17 Q508,17 516,18 Q525,18 533,18 Q541,19 549,19 Q558,19 566,19 Q574,19 582,19 Q591,19 599,19 Q607,19 615,18 Q624,18 632,18 Q640,17 648,17 Q657,16 665,16 Q673,15 681,15 Q689,14 698,13 Q706,13 714,12 Q722,12 731,11 Q739,11 747,10 Q755,10 764,9 Q772,9 780,9 Q788,9 797,9 Q805,9 813,9 Q821,9 829,9 Q838,9 846,10 Q854,10 862,10 Q871,11 879,11 Q887,12 895,12 Q904,13 912,13 Q920,14 928,14 Q937,15 945,15 Q953,16 961,16 Q970,17 978,17 L986,17" stroke-width="2.2"/><path d="M983,14 Q982,31 982,40 Q982,48 982,57 Q982,65 982,74 Q982,83 982,91 Q982,100 982,108 Q983,117 983,125 Q983,134 984,143 Q984,151 984,160 Q985,168 985,177 Q986,186 986,194 Q987,203 987,211 Q988,220 988,228 Q989,237 989,246 Q990,254 990,263 Q990,271 991,280 Q991,288 991,297 Q991,306 991,314 Q991,323 991,331 Q991,340 991,348 Q991,357 990,366 Q990,374 990,383 Q990,391 989,400 Q989,409 989,417 Q988,426 988,434 Q988,443 987,451 Q987,460 987,469 Q986,477 986,486 Q986,494 986,503 Q986,511 985,520 Q985,529 985,537 Q985,546 985,554 Q985,563 985,571 Q985,580 985,589 Q985,597 985,606 Q985,614 985,623 Q985,631 985,640 Q985,649 985,657 Q985,666 985,674 Q985,683 985,692 Q984,700 984,709 Q984,717 984,726 Q983,734 983,743 Q983,752 983,760 Q982,769 982,777 Q982,786 982,794 Q982,803 982,812 Q981,820 981,829 Q981,837 982,846 Q982,854 982,863 Q982,872 982,880 Q983,889 983,897 Q983,906 984,915 Q984,923 985,932 Q985,940 986,949 Q986,957 987,966 Q987,975 988,983 Q988,992 989,1000 Q989,1009 990,1017 L990,1026" stroke-width="2.2"/><path d="M986,1029 Q970,1029 961,1029 Q953,1029 945,1029 Q937,1029 928,1028 Q920,1028 912,1028 Q904,1028 895,1028 Q887,1027 879,1027 Q871,1027 862,1026 Q854,1026 846,1025 Q838,1025 829,1024 Q821,1024 813,1024 Q805,1023 797,1023 Q788,1022 780,1022 Q772,1022 764,1021 Q755,1021 747,1021 Q739,1021 731,1021 Q722,1021 714,1021 Q706,1021 698,1021 Q689,1021 681,1022 Q673,1022 665,1022 Q657,1023 648,1023 Q640,1024 632,1024 Q624,1025 615,1025 Q607,1026 599,1026 Q591,1027 582,1027 Q574,1028 566,1029 Q558,1029 549,1029 Q541,1030 533,1030 Q525,1030 516,1031 Q508,1031 500,1031 Q492,1031 484,1031 Q475,1031 467,1031 Q459,1031 451,1030 Q442,1030 434,1030 Q426,1030 418,1029 Q409,1029 401,1029 Q393,1028 385,1028 Q376,1027 368,1027 Q360,1027 352,1026 Q343,1026 335,1026 Q327,1025 319,1025 Q311,1025 302,1024 Q294,1024 286,1024 Q278,1024 269,1024 Q261,1024 253,1024 Q245,1024 236,1024 Q228,1024 220,1024 Q212,1024 203,1024 Q195,1024 187,1024 Q179,1024 171,1024 Q162,1024 154,1024 Q146,1024 138,1024 Q129,1024 121,1024 Q113,1024 105,1024 Q96,1024 88,1024 Q80,1024 72,1024 Q63,1024 55,1024 Q47,1024 39,1024 Q30,1024 22,1024 L14,1024" stroke-width="2.2"/><path d="M19,1026 Q19,1009 19,1000 Q19,992 19,983 Q18,975 18,966 Q18,957 18,949 Q17,940 17,932 Q16,923 16,915 Q16,906 15,897 Q15,889 15,880 Q14,872 14,863 Q14,854 13,846 Q13,837 13,829 Q12,820 12,812 Q12,803 12,794 Q12,786 12,777 Q12,769 12,760 Q11,752 12,743 Q12,734 12,726 Q12,717 12,709 Q12,700 12,692 Q12,683 12,674 Q12,666 12,657 Q12,649 12,640 Q12,631 12,623 Q12,614 12,606 Q12,597 12,589 Q12,580 12,571 Q12,563 12,554 Q12,546 12,537 Q12,529 12,520 Q12,511 12,503 Q12,494 12,486 Q12,477 13,469 Q13,460 13,451 Q13,443 13,434 Q13,426 13,417 Q14,409 14,400 Q14,391 14,383 Q15,374 15,366 Q15,357 16,348 Q16,340 16,331 Q17,323 17,314 Q17,306 18,297 Q18,288 18,280 Q18,271 19,263 Q19,254 19,246 Q19,237 19,228 Q19,220 19,211 Q19,203 18,194 Q18,186 18,177 Q18,168 17,160 Q17,151 17,143 Q16,134 16,125 Q15,117 15,108 Q14,100 14,91 Q13,83 13,74 Q12,65 12,57 Q11,48 11,40 Q10,31 10,23 L10,14" stroke-width="2.2"/></g></svg>